<?xml version="1.0" standalone="no"?>
<!DOCTYPE svg PUBLIC "-//W3C//DTD SVG 20010904//EN"
 "http://www.w3.org/TR/2001/REC-SVG-20010904/DTD/svg10.dtd">
<svg version="1.0" xmlns="http://www.w3.org/2000/svg"
 width="616.000000pt" height="567.000000pt" viewBox="0 0 616.000000 567.000000"
 preserveAspectRatio="xMidYMid meet">
<metadata>
Created by potrace 1.13, written by Peter Selinger 2001-2015
</metadata>
<g transform="translate(0.000000,567.000000) scale(0.100000,-0.100000)"
fill="#000000" stroke="none">
<path d="M3056 5518 c-7 -13 -22 -45 -32 -71 -9 -27 -25 -51 -33 -54 -56 -17
-80 -34 -97 -72 -21 -48 -26 -43 -50 52 -9 38 -23 71 -31 74 -24 9 -64 -19
-84 -59 -16 -31 -27 -40 -64 -49 -25 -6 -48 -15 -51 -20 -3 -5 -15 -9 -27 -9
-49 0 -95 -22 -149 -72 -97 -91 -185 -195 -216 -257 -16 -33 -39 -73 -50 -88
-22 -31 -52 -124 -52 -161 0 -25 15 -44 41 -54 20 -8 61 -120 52 -144 -3 -11
-24 -45 -46 -77 -22 -31 -38 -59 -36 -60 2 -2 21 -16 42 -32 27 -20 34 -31 26
-36 -24 -14 2 -82 37 -99 l31 -15 -66 -52 c-36 -29 -69 -53 -72 -53 -4 0 -10
-16 -13 -35 -6 -32 -39 -110 -60 -143 -6 -10 -13 -4 -26 25 -10 21 -41 66 -69
100 -28 34 -53 75 -57 90 -10 43 -32 73 -55 73 -18 0 -20 4 -15 25 4 15 0 34
-9 49 -14 21 -14 24 0 36 11 9 14 22 10 39 -8 33 -21 41 -69 41 l-39 0 6 74
c5 71 4 74 -19 85 -13 6 -24 15 -24 21 0 5 -3 9 -7 9 -28 -5 -43 3 -43 22 0
28 -30 51 -48 37 -20 -17 -157 -22 -236 -9 -39 7 -99 22 -134 33 -50 16 -66
17 -77 8 -8 -7 -15 -18 -15 -24 0 -6 29 -69 65 -141 35 -71 81 -170 101 -220
47 -114 52 -120 74 -100 20 18 19 40 6 -245 -3 -68 -1 -89 12 -103 12 -13 13
-20 4 -29 -19 -19 -14 -27 28 -44 22 -9 40 -19 40 -23 0 -4 19 -30 43 -58 23
-29 56 -69 72 -90 60 -76 191 -230 265 -313 130 -144 192 -250 149 -250 -6 0
-7 -5 -4 -10 4 -6 -5 -46 -19 -90 -14 -43 -26 -87 -26 -97 0 -10 -17 10 -38
43 -21 34 -64 94 -97 133 -33 40 -61 76 -63 81 -4 11 -63 70 -85 85 -165 114
-283 167 -467 209 -63 14 -151 28 -195 31 -105 6 -259 -11 -332 -36 -32 -11
-82 -26 -111 -34 -80 -23 -125 -49 -175 -105 -65 -72 -81 -128 -73 -249 6 -90
19 -150 97 -423 l22 -77 -31 -35 c-16 -19 -55 -79 -85 -133 -31 -54 -74 -122
-96 -152 -28 -37 -38 -58 -31 -66 24 -28 291 37 390 95 30 18 96 61 147 96
l92 64 68 -2 c61 -1 76 2 143 37 137 69 217 185 229 331 l6 77 37 -54 c21 -30
53 -76 72 -104 19 -27 41 -73 49 -101 14 -49 14 -51 -3 -47 -12 3 -25 -6 -41
-29 -35 -51 -158 -166 -219 -206 -30 -19 -70 -48 -87 -63 -18 -16 -59 -45 -90
-65 -66 -41 -124 -89 -253 -209 -50 -46 -103 -86 -118 -90 -35 -9 -52 -23 -52
-44 0 -15 127 -121 145 -121 16 0 75 -52 70 -60 -11 -18 -130 -78 -185 -94
-30 -9 -82 -31 -115 -49 -54 -29 -60 -35 -58 -61 1 -16 6 -32 10 -35 5 -3 16
-19 26 -34 10 -15 30 -32 45 -38 15 -6 29 -13 32 -17 14 -19 183 -108 253
-134 43 -16 61 -18 69 -10 9 9 21 -8 49 -66 29 -61 52 -91 112 -147 114 -106
159 -145 169 -145 5 0 11 -7 14 -15 4 -8 14 -15 23 -15 13 -1 12 -3 -4 -12
-10 -6 -64 -15 -120 -20 -174 -14 -444 -63 -530 -95 -50 -18 -72 -38 -96 -85
-37 -73 -23 -99 84 -156 83 -44 210 -78 367 -97 74 -10 175 -23 223 -29 49 -7
91 -8 93 -4 3 5 42 6 87 3 45 -3 163 -10 262 -15 99 -6 275 -19 390 -30 116
-10 248 -21 295 -25 47 -3 119 -10 160 -15 41 -6 104 -12 140 -15 36 -2 86 -9
112 -14 62 -14 519 -51 633 -51 50 0 135 -9 190 -19 55 -10 142 -24 193 -31
80 -10 95 -10 105 3 10 12 27 13 92 7 44 -5 168 -14 275 -20 402 -23 508 -30
602 -39 102 -9 165 -2 206 25 12 8 22 21 22 29 0 7 7 20 15 29 9 9 11 17 5 21
-5 3 -10 16 -10 28 0 12 -9 36 -19 53 l-19 31 36 -8 c67 -16 176 -24 302 -23
146 0 194 15 205 65 8 36 -9 90 -35 114 -11 10 -20 21 -20 25 0 4 125 9 278
12 261 5 280 6 320 27 45 23 67 60 57 96 -11 40 -71 63 -279 110 -244 54 -340
68 -424 59 -34 -3 -136 -3 -226 1 l-163 7 52 49 c66 62 108 137 99 176 -8 31
-40 82 -63 99 -12 9 -1 18 55 49 127 70 184 143 184 235 0 67 -21 104 -77 139
l-46 29 24 14 c169 102 198 132 235 232 18 49 24 57 30 41 42 -116 78 -204 93
-229 11 -17 33 -57 50 -89 18 -33 39 -69 47 -82 14 -22 13 -25 -23 -54 -49
-39 -202 -131 -218 -131 -14 0 -45 -42 -45 -61 0 -7 9 -9 26 -5 19 5 30 2 40
-11 22 -28 54 -90 49 -95 -3 -3 4 -13 15 -23 26 -24 25 -42 -2 -50 -13 -4 -63
-27 -113 -50 -160 -77 -227 -105 -236 -99 -5 3 -9 3 -9 0 0 -3 9 -10 20 -16
21 -11 103 5 130 26 34 27 152 83 165 78 7 -3 16 0 20 5 10 18 72 40 93 34 30
-7 37 16 12 42 -20 22 -21 27 -11 75 15 72 14 100 -8 143 l-19 37 70 46 c81
54 115 99 94 124 -8 8 -41 65 -74 125 -67 123 -126 280 -173 460 -17 66 -37
135 -45 153 -12 29 -11 41 3 90 61 218 28 323 -103 326 -24 1 -44 4 -44 8 0 4
9 22 20 40 34 56 26 108 -27 172 -18 21 -21 31 -12 37 9 5 8 17 -5 50 -39 97
-144 210 -281 302 -25 17 -33 27 -22 27 10 0 20 8 23 18 30 95 141 318 204
407 35 50 71 115 81 145 15 49 41 118 72 190 5 14 11 30 12 35 2 6 16 44 33
85 16 41 33 87 36 101 8 38 -19 99 -44 99 -16 0 -20 7 -20 33 0 45 -13 61 -44
55 -19 -4 -27 0 -31 13 -9 26 -41 33 -67 15 -29 -21 -35 -20 -43 4 -3 11 -14
20 -23 20 -20 0 -122 -104 -122 -125 0 -8 -4 -15 -9 -15 -5 0 -11 -10 -13 -22
-2 -13 -8 -22 -13 -22 -6 1 -27 5 -48 8 -20 4 -36 3 -35 -1 1 -4 -10 -30 -24
-58 -14 -27 -31 -81 -37 -119 -11 -63 -11 -72 7 -95 10 -14 27 -43 37 -64 17
-35 17 -40 1 -80 -9 -23 -25 -58 -36 -77 -10 -19 -25 -48 -33 -65 -11 -24 -71
-96 -193 -234 -16 -18 -549 487 -541 513 2 6 47 32 100 58 54 26 100 54 103
62 9 23 -36 76 -86 101 -81 41 -130 83 -130 109 0 14 -5 28 -11 32 -6 3 -9 20
-6 38 3 17 -1 46 -9 64 -13 31 -12 32 19 47 18 7 41 21 51 29 17 14 18 19 7
40 -7 13 -24 30 -37 37 -13 7 -24 17 -24 24 0 6 -20 28 -45 48 l-45 38 21 29
22 28 -38 67 c-34 62 -36 70 -30 124 4 34 2 75 -4 99 -13 46 -55 102 -77 102
-8 0 -44 29 -79 64 -63 61 -165 126 -200 126 -9 0 -19 8 -22 18 -6 25 -67 56
-107 55 -27 -1 -42 8 -87 53 -35 37 -60 54 -73 52 -21 -3 -25 -11 -47 -101
-11 -44 -13 -46 -29 -32 -9 8 -30 17 -46 21 -25 5 -34 16 -59 76 -25 60 -47
88 -69 88 -3 0 -12 -10 -20 -22z m86 -254 c35 -9 68 -20 73 -24 6 -4 26 -11
45 -15 47 -10 99 -37 192 -98 115 -77 166 -168 153 -273 -3 -30 -9 -54 -12
-54 -3 0 -17 8 -31 19 -28 19 -228 103 -272 114 -19 5 -34 23 -57 70 -26 54
-39 68 -75 86 -54 26 -81 26 -134 2 -50 -23 -82 -62 -90 -111 -6 -34 -12 -40
-67 -66 -33 -16 -84 -43 -113 -60 -63 -38 -63 -38 -71 81 l-5 80 57 70 c68 83
120 135 135 135 5 0 10 3 10 8 0 11 59 35 105 43 66 11 90 10 157 -7z m503
-28 c39 -19 86 -49 105 -68 19 -18 50 -45 67 -60 l33 -27 -41 -53 c-23 -29
-64 -74 -92 -100 l-52 -46 -12 60 c-7 33 -24 80 -38 104 -28 47 -108 117 -187
162 l-47 27 42 17 c70 28 142 23 222 -16z m-943 6 l86 -17 -70 -85 c-78 -95
-100 -136 -93 -177 17 -110 17 -115 -5 -108 -28 9 -68 13 -227 21 -72 4 -137
10 -144 15 -15 9 2 56 35 93 11 14 37 46 56 73 19 26 61 74 94 105 54 52 60
56 72 40 7 -9 16 -14 20 -9 4 4 2 7 -4 7 -30 0 -7 27 36 41 58 21 42 21 144 1z
m441 -211 c9 -9 30 -41 45 -71 26 -51 33 -57 88 -76 32 -11 115 -47 184 -80
l125 -61 3 -46 c1 -26 -1 -47 -5 -47 -12 0 -43 54 -43 74 0 9 -8 19 -17 23
-10 3 -43 21 -73 39 -88 53 -160 67 -360 67 -168 1 -177 0 -231 -25 -77 -35
-95 -64 -125 -193 -6 -27 -8 -24 -20 33 -13 60 -13 65 9 98 16 26 49 48 132
91 116 59 125 66 125 98 0 39 34 88 64 91 16 2 31 5 34 9 8 8 45 -5 65 -24z
m763 -41 c16 -99 15 -101 -44 -116 -70 -18 -99 -34 -168 -93 -43 -37 -60 -47
-62 -35 -7 30 28 81 93 133 36 30 87 80 112 113 25 33 49 56 53 51 5 -4 12
-28 16 -53z m-1501 -166 c96 -1 182 -7 198 -13 16 -6 33 -9 38 -5 5 3 9 -2 9
-12 0 -15 -7 -16 -52 -9 -89 13 -159 7 -248 -20 -191 -59 -189 -59 -169 28 12
51 15 55 34 44 12 -6 89 -12 190 -13z m1545 -45 c30 -57 31 -61 15 -79 -10
-11 -29 -18 -50 -17 -40 1 -93 -36 -136 -96 -30 -42 -33 -61 -8 -63 8 0 22 -4
32 -9 37 -16 147 57 147 97 0 18 6 15 43 -19 23 -21 56 -49 74 -62 36 -27 35
-41 -5 -41 -15 0 -36 -6 -47 -14 -11 -7 -36 -19 -57 -25 -20 -7 -66 -39 -102
-72 l-66 -61 0 -56 c0 -73 8 -102 28 -102 9 0 44 27 77 60 33 32 76 66 96 74
37 15 37 15 47 -12 6 -15 13 -37 17 -49 6 -23 75 -71 138 -98 33 -14 68 -57
56 -69 -14 -15 -236 -107 -289 -121 -78 -20 -117 -15 -263 32 l-109 36 42 39
c40 36 42 41 37 80 -3 22 -15 54 -26 69 -26 35 -72 159 -77 209 -4 31 -1 38
20 50 35 18 52 64 40 109 -7 26 -6 43 3 61 7 14 13 37 13 53 0 17 5 27 14 27
8 0 45 23 81 51 73 56 117 78 156 79 22 0 31 -10 59 -61z m-919 22 c-18 -12
-8 -76 17 -111 30 -40 66 -54 99 -36 45 23 65 52 71 102 l5 46 48 -5 c94 -11
179 -65 239 -151 25 -37 26 -44 14 -61 -8 -10 -14 -36 -14 -57 0 -32 -7 -44
-42 -76 -22 -20 -49 -54 -58 -74 l-16 -37 -51 45 c-28 24 -70 52 -94 62 l-42
18 2 79 c1 44 7 85 12 91 10 13 106 26 187 26 44 0 52 3 52 19 0 24 -51 34
-142 25 -124 -11 -156 -42 -165 -160 -7 -85 7 -74 -123 -96 -77 -14 -122 -39
-155 -88 -21 -31 -25 -33 -25 -15 0 12 -11 53 -25 91 -14 38 -25 76 -25 85 0
9 -7 22 -14 30 -11 11 -13 23 -6 48 5 19 12 51 15 73 4 25 17 48 38 68 23 20
26 27 12 22 -11 -4 -17 -4 -13 1 4 4 20 9 35 11 15 1 29 7 31 12 2 6 11 8 21
5 10 -3 22 0 25 6 4 6 28 11 54 11 31 0 42 -3 33 -9z m-451 -64 c31 -8 61 -12
67 -10 6 2 13 -19 18 -52 l7 -57 -41 -34 c-26 -23 -42 -46 -46 -68 -9 -43 -28
-70 -96 -134 l-56 -52 -69 16 c-38 8 -78 17 -89 20 -11 2 -33 14 -49 27 l-29
24 36 60 c43 70 44 84 17 152 -23 60 -27 57 101 95 96 28 150 31 229 13z
m-1256 -142 c76 -17 187 -17 243 0 23 7 25 3 38 -99 5 -33 14 -56 31 -71 21
-19 22 -24 8 -29 -8 -3 -22 -6 -30 -6 -9 0 -48 -15 -87 -33 -59 -28 -77 -42
-101 -80 -32 -50 -46 -59 -46 -28 0 11 -4 22 -10 26 -5 3 -17 33 -26 65 -9 33
-21 60 -27 60 -6 0 -8 3 -4 6 3 4 -16 48 -43 99 -51 94 -60 121 -37 112 7 -2
48 -12 91 -22z m1337 -95 c-22 -39 -101 -323 -101 -362 0 -63 21 -98 81 -142
l61 -44 -59 -8 c-32 -4 -76 -13 -98 -21 -22 -8 -88 -20 -148 -27 -103 -12
-111 -11 -189 11 -44 13 -85 26 -89 29 -4 2 5 33 22 67 16 34 29 70 29 80 0 9
4 17 9 17 15 0 111 91 106 100 -3 4 4 6 15 3 11 -3 46 -32 77 -64 90 -93 111
-77 99 76 -8 93 -10 88 92 190 34 34 54 64 63 95 7 25 20 53 28 64 15 18 16
18 19 -4 2 -13 -5 -40 -17 -60z m108 -59 c17 -51 31 -109 31 -127 0 -19 5 -34
10 -34 6 0 8 -20 4 -55 -9 -70 2 -71 85 -6 72 55 134 79 157 60 9 -7 32 -9 68
-5 50 7 60 4 133 -32 43 -22 95 -54 117 -71 43 -34 58 -38 75 -17 9 11 7 30
-10 86 -13 45 -18 75 -12 79 6 3 16 23 24 44 7 20 23 47 36 59 l23 21 0 -41
c0 -40 42 -160 79 -224 38 -66 36 -84 -11 -119 -24 -17 -99 -58 -168 -92 -69
-33 -147 -75 -173 -94 -80 -54 -171 -69 -253 -40 -47 16 -157 86 -234 148 -30
25 -70 55 -87 67 -51 36 -59 83 -33 190 44 178 92 314 105 300 2 -2 17 -45 34
-97z m429 -24 c64 -24 182 -135 182 -171 0 -7 -177 81 -212 105 -35 25 -67 24
-119 -5 -24 -13 -55 -27 -69 -31 -14 -4 -44 -21 -67 -37 -49 -33 -54 -23 -20
36 32 56 63 75 158 96 101 21 105 22 147 7z m825 -31 l16 -35 -49 -16 c-28 -9
-71 -36 -100 -62 l-50 -45 0 44 c0 40 4 47 47 83 89 76 112 81 136 31z m-2313
-36 c0 -14 -77 -49 -106 -50 -12 0 -27 -6 -33 -14 -10 -12 -8 -17 7 -25 11 -6
21 -9 23 -7 2 2 18 6 34 10 26 6 24 3 -16 -21 -57 -35 -103 -72 -97 -78 9 -9
80 17 126 46 51 32 70 35 97 15 18 -13 14 -16 -50 -35 -79 -24 -89 -29 -98
-53 -5 -14 -1 -18 16 -18 13 0 27 4 33 9 14 14 164 53 180 47 8 -3 14 -12 14
-21 0 -12 -4 -13 -18 -4 -23 15 -74 -10 -99 -47 -21 -32 -32 -184 -14 -184 7
0 9 -5 6 -10 -4 -6 -10 -8 -15 -5 -5 3 -53 -8 -107 -25 -53 -16 -112 -30 -130
-30 -38 0 -36 -8 -33 150 2 175 31 279 84 307 76 40 196 66 196 43z m3449 -78
c-12 -20 -36 -51 -52 -69 -27 -29 -29 -33 -12 -39 20 -8 76 47 128 125 15 23
31 40 36 37 13 -8 5 -44 -28 -129 -37 -94 -38 -110 -10 -105 16 2 26 17 39 58
26 81 58 150 70 150 16 0 9 -71 -10 -105 -24 -40 -54 -135 -46 -143 12 -11 44
33 68 91 26 66 38 74 52 36 7 -20 3 -38 -17 -80 -41 -88 -94 -219 -118 -294
-12 -38 -28 -82 -35 -97 l-14 -27 -38 21 c-20 12 -56 36 -78 54 -52 41 -88 58
-108 51 -24 -9 -19 -36 7 -46 13 -5 36 -20 53 -34 16 -13 52 -36 79 -52 28
-15 52 -29 54 -31 5 -5 -69 -114 -78 -114 -3 0 -46 40 -94 88 l-88 88 22 50
c12 27 25 51 29 54 17 11 2 89 -28 148 -34 66 -34 67 -6 165 8 26 22 20 17 -7
-4 -18 0 -26 18 -31 14 -5 25 -3 27 4 2 6 15 -2 28 -19 14 -16 40 -38 59 -50
l34 -21 -14 -44 c-14 -47 -5 -66 20 -45 16 13 35 72 35 106 0 14 -15 31 -46
50 -55 35 -92 95 -69 114 7 6 26 35 41 63 14 29 35 65 46 80 20 28 20 28 35 7
13 -18 12 -24 -8 -58z m-3349 -220 c0 -24 84 -195 125 -256 27 -40 22 -44 -47
-42 -32 1 -44 9 -84 56 -26 30 -55 61 -65 68 -17 12 -16 40 2 52 5 3 13 39 19
80 16 104 18 107 35 84 8 -10 15 -30 15 -42z m1768 -92 c7 0 12 -6 12 -12 2
-71 14 -186 21 -199 4 -9 4 -20 0 -25 -5 -5 -16 -35 -26 -67 -14 -46 -21 -57
-34 -51 -40 17 -77 16 -95 -5 -18 -20 -18 -22 6 -78 14 -32 29 -85 33 -118 10
-83 10 -84 24 -135 15 -52 69 -108 112 -117 16 -3 26 -9 23 -14 -3 -5 0 -26 6
-46 21 -74 79 -508 80 -591 l0 -43 -115 -55 c-63 -30 -139 -74 -168 -97 -28
-23 -85 -66 -125 -96 -58 -42 -72 -58 -68 -74 4 -17 1 -19 -29 -14 -23 4 -38
1 -46 -9 -18 -22 -79 -51 -123 -60 -24 -4 -40 -13 -43 -24 -3 -12 -12 -16 -29
-12 -13 2 -21 8 -18 13 3 5 -2 6 -10 3 -9 -3 -16 -2 -16 4 0 5 -12 12 -26 15
-18 3 -22 1 -15 -6 6 -6 11 -21 11 -33 0 -28 16 -41 69 -53 24 -5 47 -15 51
-21 4 -6 10 -11 14 -10 4 1 27 -5 51 -14 33 -13 42 -21 38 -33 -5 -12 -3 -14
7 -8 8 5 11 4 6 -3 -4 -6 -13 -9 -20 -6 -7 3 -17 -1 -22 -8 -14 -19 -51 -118
-60 -158 -6 -33 -44 -136 -82 -225 -24 -55 -99 -155 -117 -155 -8 0 -14 5 -13
12 2 7 -4 13 -12 13 -28 2 -32 -7 -8 -19 12 -7 22 -20 22 -29 -1 -9 5 -17 12
-17 18 0 98 -40 177 -87 32 -20 80 -41 105 -48 31 -7 46 -17 45 -26 -13 -80
-34 -154 -52 -183 -25 -40 -67 -76 -88 -76 -24 0 -125 50 -164 81 -20 16 -40
29 -43 29 -4 0 -18 11 -31 24 -13 14 -33 27 -44 31 -10 3 -22 12 -25 20 -3 8
-12 15 -20 15 -7 0 -16 7 -20 15 -3 8 -12 15 -20 15 -7 0 -17 7 -20 16 -4 9
-9 14 -12 11 -3 -3 -14 2 -24 11 -10 10 -25 22 -32 27 -70 53 -88 65 -88 58 0
-4 -5 0 -11 10 -5 9 -17 17 -26 17 -9 0 -13 3 -10 7 4 3 -12 20 -36 37 -23 17
-44 33 -47 37 -3 3 -15 9 -28 13 -12 4 -20 11 -17 16 3 5 -4 11 -14 15 -11 3
-49 41 -84 83 l-64 78 61 18 c34 9 103 37 154 62 51 24 98 44 104 44 6 0 31 7
57 15 25 8 58 17 73 20 21 4 26 9 21 23 -4 9 -11 21 -17 25 -7 5 -4 6 7 3 12
-4 28 4 47 23 28 27 30 28 46 10 16 -17 18 -17 68 10 71 38 96 55 96 63 0 14
-19 8 -37 -10 -38 -39 -50 -34 -62 25 -14 71 -14 157 0 207 l11 39 28 -32 c28
-30 60 -42 60 -22 0 5 9 13 20 16 17 5 20 15 20 59 0 65 -15 89 -135 209 l-87
89 6 76 c3 43 8 219 12 392 10 493 -30 862 -102 958 -28 35 -25 52 9 51 12 0
41 4 65 10 42 11 46 10 110 -32 37 -24 74 -48 82 -53 8 -5 15 -20 16 -34 0
-14 4 -43 7 -65 4 -22 9 -110 12 -195 3 -85 10 -204 16 -265 11 -109 4 -272
-21 -512 -7 -62 -7 -108 0 -138 6 -25 15 -66 20 -91 28 -124 103 -222 190
-248 73 -22 180 -30 215 -16 84 32 150 108 173 202 14 55 15 187 2 243 -5 22
-16 94 -25 160 -9 66 -21 152 -26 190 -5 39 -16 131 -24 205 -8 74 -19 182
-26 240 -7 64 -9 163 -6 253 l6 148 -22 -3 c-22 -3 -28 -25 -39 -139 -2 -21
-13 -33 -58 -55 -50 -26 -65 -29 -155 -29 -128 0 -168 17 -183 77 l-10 40 26
-9 c15 -4 69 -7 120 -6 86 2 96 4 142 34 28 18 50 36 50 41 0 4 3 7 8 7 19 -3
33 2 28 10 -4 5 4 7 16 4 16 -3 19 -2 10 5 -10 7 -5 12 20 21 47 18 159 74
165 84 3 5 13 1 22 -7 10 -9 23 -16 29 -16z m170 -56 c98 -30 160 -29 253 4
l57 20 28 -45 c16 -25 83 -96 151 -159 67 -62 119 -115 115 -117 -4 -2 -32 -9
-62 -16 -73 -17 -265 -112 -265 -131 0 -9 9 -15 21 -14 16 0 20 -4 16 -14 -3
-10 -1 -13 6 -8 7 4 12 13 12 21 0 18 137 83 235 111 l79 23 56 -52 c30 -28
65 -62 77 -74 12 -13 25 -23 30 -23 4 0 21 -13 38 -29 16 -17 47 -42 67 -58
20 -15 68 -54 107 -86 39 -31 87 -67 108 -79 53 -31 68 -48 69 -77 1 -14 5
-43 9 -63 4 -22 4 -38 -1 -38 -5 0 -42 29 -83 65 -93 82 -148 110 -186 95 -18
-7 -30 -7 -34 -1 -4 5 -41 19 -84 31 -42 12 -107 35 -144 52 -38 17 -93 39
-123 48 l-55 17 67 32 c51 25 86 34 145 38 77 6 108 17 97 34 -3 5 -36 9 -74
9 -95 0 -271 -64 -254 -92 9 -14 -123 20 -173 44 -17 8 -27 8 -40 -3 -16 -13
-17 -12 -5 3 11 14 10 17 -7 23 -15 4 -21 15 -21 35 0 49 -29 184 -47 217 -19
35 -51 54 -80 47 -11 -3 -26 3 -37 15 -11 12 -26 21 -34 21 -9 0 -26 10 -38
21 -31 29 -65 30 -84 3 -14 -20 -15 -15 -17 77 0 60 3 99 9 99 6 0 49 -12 96
-26z m-1603 -28 l100 -32 0 -139 c0 -127 -2 -144 -23 -183 -13 -24 -30 -46
-38 -49 -9 -3 -34 12 -62 38 -27 24 -82 73 -124 109 -42 36 -75 66 -73 68 1 2
15 5 31 8 38 7 76 32 68 45 -3 5 6 21 20 35 28 29 24 55 -14 96 -15 17 -17 24
-8 30 16 10 7 12 123 -26z m427 -61 c32 -63 64 -207 71 -312 4 -67 3 -73 -15
-73 -23 0 -65 -44 -120 -127 l-41 -62 -27 19 c-44 31 -139 69 -191 76 -58 8
-59 1 8 144 l44 95 -3 133 -3 132 35 1 c19 0 64 6 100 13 113 21 112 22 142
-39z m-833 -27 l61 -63 -32 -14 c-53 -22 -181 -38 -186 -23 -2 7 -19 31 -38
53 -37 45 -42 59 -19 59 8 0 15 4 15 9 0 5 12 11 28 14 15 3 43 10 62 15 19 6
38 10 41 11 4 1 34 -27 68 -61z m1990 -184 c6 -50 11 -110 11 -133 0 -41 1
-43 25 -37 15 4 25 2 25 -4 0 -6 -4 -8 -10 -5 -5 3 -10 1 -10 -5 0 -7 13 -10
33 -8 32 3 32 4 40 68 5 36 9 70 9 77 1 7 6 9 11 6 6 -4 8 12 5 42 -5 42 -4
45 9 32 23 -23 43 -111 50 -214 3 -51 10 -93 14 -93 15 0 10 -41 -15 -125 -20
-71 -26 -80 -49 -83 -29 -4 -58 29 -101 116 -15 28 -28 52 -30 52 -15 0 -36
-36 -36 -60 0 -37 -12 -44 -55 -30 -54 18 -80 57 -94 141 -19 113 -32 171 -47
201 -12 24 -12 27 0 22 8 -3 19 -18 26 -33 6 -16 22 -33 35 -39 22 -10 23 -9
34 64 21 143 54 154 44 15 -6 -93 2 -116 33 -90 13 11 15 33 12 126 -4 138 14
136 31 -3z m-1865 53 c22 -17 91 -76 154 -131 89 -77 119 -97 137 -94 28 6 30
11 -48 -153 -49 -104 -77 -148 -77 -120 0 5 -12 22 -27 38 -116 121 -373 422
-373 437 0 3 12 6 28 6 15 1 56 11 92 24 36 13 67 24 70 24 3 1 23 -13 44 -31z
m1475 -98 c-23 -14 -269 -27 -314 -17 -48 11 -55 19 -55 63 l0 44 47 -16 c63
-22 201 -7 270 29 l48 24 7 -60 c5 -39 4 -63 -3 -67z m1709 -148 c-17 -36 -43
-94 -59 -129 -16 -35 -29 -68 -29 -73 0 -26 -77 21 -199 122 -93 78 -99 85
-84 101 9 10 24 18 34 18 19 0 101 87 152 162 l32 47 91 -91 92 -90 -30 -67z
m-1694 77 c5 -25 21 -159 36 -313 6 -55 17 -140 25 -190 39 -249 57 -411 52
-466 -8 -68 -32 -135 -57 -152 -9 -6 -17 -16 -17 -22 0 -5 -18 -20 -39 -33
-33 -19 -48 -22 -99 -17 -33 3 -61 10 -63 15 -2 6 -13 10 -25 10 -12 1 -42 11
-67 23 -35 17 -52 34 -73 75 -28 51 -67 171 -67 203 0 17 51 34 60 20 3 -4 13
-11 24 -14 14 -6 17 -15 14 -42 -2 -19 0 -35 4 -35 5 0 8 -8 6 -17 -2 -10 2
-17 8 -16 5 1 15 -12 21 -28 6 -16 7 -29 2 -29 -5 0 -9 6 -9 14 0 8 -4 17 -10
21 -5 3 -5 -7 1 -25 6 -16 18 -30 26 -30 8 0 21 -7 29 -15 25 -25 82 -29 142
-10 102 32 144 105 105 184 l-20 40 41 13 c24 8 41 19 41 28 0 8 -7 14 -15 13
-8 -2 -49 -10 -90 -18 -67 -13 -89 -13 -205 1 -71 9 -135 20 -142 26 -7 5 -17
7 -23 3 -8 -5 -10 12 -6 61 26 326 28 394 17 523 -6 74 -11 149 -11 167 l0 34
58 -5 c33 -3 83 0 117 8 33 8 93 15 132 16 68 1 73 -1 77 -21z m-693 -557 c0
-255 -4 -428 -10 -434 -12 -12 -97 101 -145 193 -62 117 -85 253 -61 357 16
69 62 183 75 183 4 0 7 6 7 14 0 7 26 48 58 91 l59 78 9 -29 c5 -16 9 -220 8
-453z m-1461 416 c212 -51 352 -127 481 -261 131 -134 245 -317 274 -436 8
-36 26 -105 40 -155 14 -49 36 -134 50 -189 13 -54 26 -101 29 -103 2 -3 -23
-37 -56 -76 -33 -40 -67 -87 -75 -106 -16 -38 -19 -148 -5 -196 8 -25 5 -36
-18 -65 -48 -62 -62 -98 -55 -142 5 -28 14 -42 31 -50 13 -6 24 -16 24 -21 0
-6 3 -7 7 -4 3 4 14 0 23 -8 9 -8 25 -16 36 -18 10 -2 29 -8 40 -15 12 -6 40
-14 63 -18 36 -6 50 -16 94 -68 179 -211 472 -453 673 -554 69 -34 161 -57
196 -49 29 8 69 46 110 104 19 29 35 73 48 134 11 51 22 94 23 96 2 2 35 -6
73 -18 74 -23 75 -24 203 -33 46 -3 89 -10 95 -15 6 -4 34 -9 61 -9 28 -1 89
-7 137 -13 48 -6 94 -9 102 -6 20 8 20 36 0 58 -14 16 -14 18 8 30 13 6 25 15
28 19 13 17 134 82 205 111 44 17 85 36 92 41 14 11 13 49 -2 46 -13 -3 -88
43 -81 49 3 3 -30 40 -73 82 -43 42 -95 98 -115 125 -34 45 -36 50 -20 67 26
29 9 40 -38 23 -53 -18 -193 -18 -247 1 -61 21 -384 179 -401 196 -8 8 -30 21
-47 28 -18 7 -33 18 -33 23 0 5 -4 6 -10 3 -5 -3 -10 1 -10 11 0 11 -6 15 -20
11 -11 -3 -18 -1 -14 4 3 5 -2 9 -10 9 -33 0 -24 20 16 38 24 10 49 26 57 35
7 10 17 17 21 17 11 0 163 -89 265 -155 178 -115 351 -179 505 -187 114 -5
243 2 258 15 9 7 23 11 33 9 10 -2 40 7 66 19 27 11 89 38 139 58 50 21 112
50 138 65 57 33 171 173 188 231 25 83 0 345 -33 345 -12 0 34 41 97 85 23 17
77 61 120 99 90 78 125 96 189 96 57 0 80 -12 101 -52 19 -36 13 -89 -16 -155
-21 -48 -261 -289 -317 -320 -38 -20 -42 -33 -10 -33 38 0 81 34 223 175 74
74 144 135 154 135 40 0 81 -14 105 -36 30 -28 33 -73 10 -188 -15 -83 -35
-132 -66 -165 -11 -11 -16 -21 -12 -21 4 0 -40 -48 -98 -107 -105 -108 -166
-178 -187 -220 -15 -28 -15 -33 2 -33 8 0 37 28 64 62 88 111 83 108 181 89
69 -14 89 -23 109 -46 21 -25 24 -36 19 -82 -4 -37 -14 -65 -35 -93 -46 -63
-193 -160 -241 -160 -23 0 -38 -19 -23 -29 6 -4 -7 -28 -35 -61 -25 -30 -40
-56 -34 -58 15 -5 77 42 97 74 13 18 20 22 30 13 7 -6 10 -17 7 -25 -4 -11 2
-14 27 -12 28 3 35 -2 51 -32 33 -58 12 -145 -48 -202 -32 -30 -154 -100 -224
-128 -54 -22 -161 -99 -153 -111 6 -11 38 2 127 51 81 44 87 46 87 27 0 -7 9
-18 20 -25 28 -17 42 -56 31 -85 -5 -13 -26 -40 -46 -60 -20 -20 -34 -37 -30
-37 16 0 -52 -46 -119 -80 -159 -81 -228 -123 -215 -131 9 -5 -5 -16 -46 -34
-33 -15 -73 -33 -90 -41 -142 -65 -327 -115 -558 -150 -104 -16 -108 -18 -103
-39 5 -21 2 -24 -47 -30 -28 -3 -117 -15 -197 -25 -122 -16 -305 -27 -575 -34
-50 -1 -212 8 -310 18 -27 3 -153 14 -280 26 -126 11 -267 27 -311 35 -45 8
-93 15 -106 15 -13 0 -28 4 -33 9 -6 6 -35 17 -66 25 -64 16 -132 49 -204 99
-27 19 -96 63 -153 98 -463 287 -639 428 -701 559 -23 50 -26 67 -26 175 l0
120 54 90 c30 50 64 102 75 116 12 15 38 54 59 88 21 34 42 59 47 56 6 -3 14
5 19 18 5 13 29 49 53 78 68 83 203 271 223 309 73 141 74 334 4 472 -27 54
-119 177 -186 251 -29 32 -53 62 -53 67 0 4 -16 18 -36 31 -33 20 -37 21 -52
5 -16 -16 -15 -18 15 -41 50 -40 66 -96 61 -212 -4 -87 -9 -105 -38 -161 -31
-59 -82 -112 -108 -112 -7 0 -12 -4 -12 -8 0 -23 -101 -53 -155 -45 -39 5 -44
9 -63 54 -15 34 -35 57 -64 76 -37 25 -50 28 -127 28 -62 0 -95 -5 -117 -17
l-32 -17 -30 97 c-78 248 -104 431 -73 524 24 72 147 160 201 143 13 -4 31 1
49 14 85 61 366 69 581 18z m2905 -51 c50 -12 89 -27 88 -32 -1 -5 -5 -34 -9
-64 -6 -48 -31 -130 -39 -130 -2 0 -36 16 -76 35 -41 19 -81 35 -91 35 -10 0
-18 5 -18 11 0 21 43 169 49 169 3 -1 47 -11 96 -24z m-1749 -52 c41 -19 77
-41 80 -47 2 -7 -7 -42 -21 -77 -14 -36 -29 -93 -32 -127 -3 -35 -8 -63 -10
-63 -2 0 -15 7 -28 16 -14 9 -39 20 -57 24 -18 4 -68 17 -110 29 -43 11 -87
21 -98 21 -11 0 -23 6 -26 14 -3 7 23 69 57 136 l63 122 53 -6 c30 -3 88 -22
129 -42z m2033 -44 c47 -21 123 -46 169 -57 l82 -18 0 -36 c0 -20 12 -77 26
-125 15 -49 29 -97 32 -108 7 -25 -9 -19 -173 55 -71 32 -151 65 -176 74 -26
8 -72 27 -104 41 -61 28 -60 24 -31 99 8 22 15 60 16 84 l0 43 37 -7 c20 -3
75 -24 122 -45z m-619 -60 c15 -36 55 -70 83 -70 18 0 19 -4 13 -62 -7 -67
-69 -208 -91 -208 -12 0 -21 29 -31 105 -3 22 -10 67 -16 100 -19 109 -21 135
-9 135 6 0 10 3 10 8 -6 34 26 28 41 -8z m985 -50 c24 -17 66 -51 92 -75 52
-49 79 -61 118 -51 34 9 48 47 35 94 -5 20 -8 37 -6 39 5 6 173 -144 194 -174
27 -38 62 -102 62 -112 0 -5 -21 -9 -47 -9 -97 0 -161 -32 -273 -137 -25 -23
-63 -55 -85 -70 -22 -16 -52 -40 -67 -54 -16 -14 -28 -19 -28 -13 0 7 9 20 20
29 15 13 20 30 20 64 0 54 -29 204 -59 299 -11 36 -26 92 -35 124 -22 87 -12
95 59 46z m-757 -10 c2 0 1 -4 -2 -9 -4 -5 3 -7 14 -4 12 3 20 0 20 -6 0 -7 4
-10 9 -6 5 3 12 1 16 -5 7 -11 46 -29 117 -55 26 -9 51 -21 55 -27 4 -7 0 -9
-9 -5 -9 3 -33 -1 -54 -8 -22 -8 -66 -15 -99 -15 -66 -1 -133 -20 -125 -35 12
-24 235 8 285 41 22 14 29 14 104 -11 71 -24 80 -29 71 -45 -7 -13 -6 -20 1
-22 15 -5 13 -129 -3 -163 -15 -33 -54 -36 -43 -2 4 12 9 64 12 115 5 79 3 92
-10 92 -22 0 -32 -19 -33 -60 -2 -85 -8 -120 -23 -125 -14 -5 -14 -7 -1 -16
11 -8 2 -9 -30 -5 -143 20 -197 19 -271 -4 -114 -34 -124 -51 -59 -97 22 -15
40 -33 40 -40 0 -6 -24 -19 -52 -28 -29 -9 -67 -23 -85 -31 -40 -18 -57 -18
-50 1 4 8 3 17 -2 19 -4 3 -11 55 -15 116 -3 61 -7 116 -9 123 -1 6 7 13 18
15 33 7 56 33 91 105 21 45 35 91 40 135 3 37 8 70 10 74 3 3 19 2 37 -3 17
-5 33 -9 35 -9z m-1818 -136 c52 -14 121 -37 153 -52 48 -23 59 -33 67 -62 5
-19 10 -42 10 -50 0 -22 64 -152 104 -213 47 -71 165 -207 257 -297 84 -82 99
-104 99 -146 l0 -28 -32 31 c-32 30 -81 53 -76 36 1 -4 -9 -41 -22 -82 -19
-61 -22 -88 -18 -162 l5 -89 -19 40 c-11 23 -30 69 -42 103 -21 62 -47 84 -60
51 -7 -19 6 -66 39 -139 20 -45 21 -53 8 -70 -13 -19 -15 -19 -27 -3 -7 9 -25
62 -40 117 -28 98 -41 116 -64 88 -8 -9 -5 -32 9 -82 10 -38 19 -74 19 -80 -1
-16 -37 55 -67 133 -25 64 -31 73 -50 69 -28 -5 -30 1 -38 126 l-7 97 -101
128 c-168 210 -206 265 -268 377 -34 62 -34 78 0 168 12 31 2 32 161 -9z
m2489 -147 l49 -11 13 -76 c7 -41 14 -84 15 -95 2 -25 -24 -65 -43 -65 -18 0
-273 99 -273 106 0 3 7 27 16 55 11 32 15 71 12 112 l-4 64 83 -39 c46 -22
105 -44 132 -51z m-2555 -256 c44 -58 99 -129 123 -157 24 -28 43 -54 43 -57
0 -4 -133 -83 -162 -95 -5 -2 -8 6 -8 18 0 13 -22 109 -50 215 -51 198 -58
235 -37 201 7 -10 48 -67 91 -125z m2143 104 c51 -9 145 -39 247 -80 90 -36
169 -65 175 -65 6 0 11 -12 11 -26 0 -23 3 -25 24 -20 21 5 25 1 36 -42 7 -26
14 -94 17 -152 5 -100 4 -108 -21 -159 -52 -103 -127 -165 -257 -214 -35 -14
-90 -37 -123 -52 -46 -21 -71 -26 -120 -25 -85 3 -89 2 -82 -16 6 -15 -6 -16
-116 -9 -131 7 -246 31 -331 69 -96 42 -427 242 -427 257 0 5 0 11 0 14 0 3 1
4 3 3 2 -2 21 13 70 56 12 10 38 28 57 41 19 12 53 39 74 58 22 20 53 41 70
47 17 6 63 25 101 44 39 18 72 30 73 25 6 -15 19 -10 24 9 4 13 39 32 114 61
60 24 115 48 122 54 10 8 16 7 22 -3 13 -21 40 -4 40 26 0 18 -13 38 -42 64
l-41 38 34 6 c19 3 45 7 59 9 30 5 78 0 187 -18z m-1093 -45 c-9 -42 11 -70
49 -70 46 1 70 23 71 65 1 33 26 53 26 20 0 -8 5 -15 10 -15 16 0 31 -51 25
-82 -9 -38 -42 -58 -107 -65 -40 -4 -57 -2 -66 9 -17 21 -73 159 -67 167 2 4
18 6 34 3 27 -4 29 -7 25 -32z m-2463 -80 c25 -11 79 -84 79 -105 -1 -15 -205
-144 -240 -152 -18 -3 -34 -12 -37 -19 -3 -8 -17 -11 -41 -8 -23 3 -32 1 -24
-5 11 -7 11 -9 -2 -14 -9 -4 -16 -2 -16 3 0 5 -11 5 -27 0 -16 -5 -51 -16 -79
-24 l-52 -14 54 91 c30 50 58 93 63 96 4 3 11 16 15 27 7 24 56 84 56 70 0 -6
16 5 35 24 19 19 35 31 35 28 0 -4 12 0 28 8 30 17 110 14 153 -6z m738 -147
c2 -119 -65 -233 -319 -541 -30 -37 -70 -92 -89 -122 -19 -30 -43 -65 -54 -77
-19 -21 -19 -21 -59 -3 -22 10 -43 22 -47 26 -3 5 -13 9 -22 10 -8 1 -61 32
-117 69 -94 62 -119 85 -92 85 6 0 63 50 126 110 64 61 121 110 128 110 6 0
16 8 23 19 12 19 113 86 113 75 0 -4 9 5 21 20 11 14 61 54 110 87 54 37 125
99 177 155 l87 93 7 -37 c4 -20 7 -56 7 -79z m885 -106 c9 -13 20 -69 26 -134
6 -62 13 -118 15 -125 4 -9 -2 -14 -15 -15 -11 -1 -46 -11 -78 -23 -53 -20
-96 -42 -233 -119 l-57 -31 -6 63 c-7 62 -3 89 18 116 5 7 11 19 12 27 8 55
115 162 220 220 43 24 80 44 81 44 2 0 9 -10 17 -23z m3121 -269 c15 -62 30
-120 32 -128 4 -12 2 -12 -9 1 -27 33 -80 51 -154 53 -41 0 -74 3 -74 5 0 6
163 178 170 180 4 0 19 -50 35 -111z m-3061 -66 c9 -27 31 -68 48 -91 24 -34
36 -42 54 -38 13 2 29 -2 35 -9 6 -8 22 -14 36 -14 14 0 21 -4 18 -10 -3 -5
-33 -10 -65 -10 -49 0 -58 3 -54 15 5 12 -2 15 -33 15 -30 0 -51 9 -87 35 -25
20 -46 39 -46 43 1 4 14 23 30 42 17 19 30 42 30 52 0 34 18 18 34 -30z m-133
-38 c-12 -15 -21 -32 -21 -38 0 -17 102 -106 130 -113 14 -3 35 -17 48 -30 12
-13 22 -19 22 -14 0 6 19 10 43 10 23 -1 33 -3 22 -6 -30 -6 -81 -27 -167 -67
-91 -42 -188 -61 -272 -53 -98 10 -135 24 -142 54 -9 33 22 92 53 104 13 5 23
13 23 19 0 6 17 18 38 28 20 9 40 21 43 25 3 4 10 7 15 6 12 -4 58 12 64 21 7
11 103 78 113 79 5 1 -1 -11 -12 -25z m1222 -162 c70 -34 127 -66 127 -72 0
-7 6 -10 14 -7 10 4 16 -6 20 -38 15 -95 96 -303 170 -433 20 -35 36 -66 36
-68 0 -8 -53 -4 -192 17 -79 11 -179 24 -222 29 -44 5 -101 17 -127 25 -70 24
-76 47 -84 365 -3 118 -8 227 -11 242 -3 15 -3 36 1 47 6 19 9 18 73 -14 37
-18 124 -60 195 -93z m-307 -197 c1 -140 5 -275 8 -300 9 -57 -3 -59 -94 -10
-36 19 -84 45 -107 57 -24 12 -43 25 -43 29 0 3 18 37 40 75 22 38 51 101 65
139 15 39 40 106 57 150 16 44 31 85 32 90 9 34 19 46 30 35 7 -7 11 -93 12
-265z m740 74 c14 -23 61 -78 105 -123 175 -180 163 -165 137 -175 -90 -35
-122 -51 -195 -98 l-82 -52 -34 62 c-66 117 -92 182 -163 406 -3 11 8 12 58 7
49 -4 124 2 145 13 2 0 14 -18 29 -40z m-2989 -41 c9 -7 6 -19 -13 -47 -29
-45 -54 -152 -54 -237 0 -53 -3 -62 -20 -67 -11 -3 -20 -1 -20 5 0 6 -9 8 -20
5 -11 -3 -20 -1 -20 4 0 5 -6 9 -12 9 -45 0 -255 134 -286 182 -10 14 -5 19
36 33 75 27 83 30 163 69 42 21 89 50 104 66 l28 29 51 -20 c28 -12 56 -25 63
-31z m347 -843 c14 -14 32 -25 41 -25 8 0 15 -4 15 -10 0 -5 11 -12 25 -16 14
-3 23 -9 21 -13 -3 -4 5 -13 17 -21 20 -12 21 -12 8 4 -8 9 41 -17 108 -59 68
-41 125 -75 129 -75 3 0 28 -17 56 -38 108 -80 187 -124 270 -150 l51 -17 -40
-3 c-22 -2 -168 1 -325 8 -157 7 -325 14 -375 16 -186 7 -405 38 -556 79 -78
21 -219 89 -219 106 0 14 68 49 161 84 108 41 329 85 427 86 82 0 134 17 147
47 5 12 11 22 12 22 1 0 13 -11 27 -25z m4337 -84 c46 -7 134 -23 194 -36 61
-13 124 -27 141 -30 26 -5 31 -10 26 -27 -4 -17 -2 -18 14 -8 15 9 28 8 58 -2
91 -30 42 -63 -118 -78 -65 -6 -128 -9 -140 -6 -37 9 -609 8 -641 -1 -16 -5
-31 -17 -33 -26 -3 -15 10 -17 116 -17 105 0 124 -3 163 -23 72 -38 114 -118
69 -132 -33 -10 -235 -21 -266 -13 -28 6 -144 26 -194 33 -14 1 -59 6 -100 10
-41 3 -92 9 -112 12 -31 4 -38 2 -38 -11 0 -9 8 -20 18 -23 9 -4 22 -12 27
-19 6 -6 27 -15 49 -19 50 -8 111 -49 125 -83 11 -28 10 -56 -2 -68 -18 -18
-104 -22 -247 -9 -85 8 -194 17 -242 20 -49 4 -88 11 -88 16 0 5 -93 9 -207 9
-301 2 -416 5 -435 14 -11 5 -18 4 -18 -3 0 -6 -5 -11 -11 -11 -5 0 -7 5 -3
11 5 9 -3 10 -30 5 -25 -5 -36 -3 -36 5 0 8 -4 8 -15 -1 -12 -10 -15 -10 -15
0 0 7 -6 10 -13 7 -8 -3 -45 1 -83 9 -38 7 -119 16 -181 20 -113 7 -144 19
-56 22 26 1 80 6 118 11 39 6 144 17 235 26 233 24 332 44 344 71 8 19 23 24
97 33 160 21 366 78 500 140 35 16 94 43 131 59 45 20 72 39 79 55 11 25 53
47 118 64 51 12 605 8 702 -6z"/>
<path d="M2858 4693 c-20 -5 -23 -18 -8 -28 13 -8 3 -46 -17 -62 -20 -15 -2
-49 30 -55 41 -8 152 9 180 27 22 14 25 21 17 36 -13 23 -80 42 -131 37 -21
-2 -35 0 -33 4 3 5 20 8 39 8 43 0 88 17 80 30 -6 10 -123 12 -157 3z"/>
<path d="M3300 4637 c-46 -16 -65 -61 -35 -84 27 -20 126 -12 188 16 41 19 46
24 37 40 -6 12 -29 23 -60 30 -63 14 -85 13 -130 -2z"/>
<path d="M2357 4550 c-66 -35 -35 -86 59 -96 38 -4 56 -1 82 15 37 24 39 31
14 61 -26 33 -112 43 -155 20z"/>
<path d="M672 3033 c-79 -38 -111 -133 -74 -217 25 -55 50 -67 145 -69 66 -2
69 -1 101 34 73 79 52 192 -45 243 -59 30 -81 32 -127 9z m136 -79 c40 -45 20
-164 -28 -164 -16 0 -20 7 -20 36 0 19 -4 44 -10 54 -14 26 -75 61 -94 54 -26
-10 -10 19 22 38 37 23 100 14 130 -18z"/>
<path d="M4842 1388 c-9 -9 -6 -14 11 -22 28 -14 34 -63 13 -103 -8 -16 -57
-67 -110 -113 -90 -80 -113 -120 -50 -87 41 22 182 154 199 188 21 40 19 112
-3 132 -22 20 -43 22 -60 5z"/>
</g>
</svg>
